# xmcd
#
# Track frame offsets: 
#        150
#        25707
#        33272
#        58652
#        77535
#        96610
#        112295
#        130390
#        148422
#        164145
#        180225
#
# Disc length: 2548 seconds
#
# Revision: 0
# Processed by: cddbd v1.5.2PL0 Copyright (c) Steve Scherf et al.
# Submitted via: ExactAudioCopy v1.0b1
#
DISCID=9e09f20b
DTITLE=Liza Kay - Passion Flower
DYEAR=1995
DGENRE=Folklore
TTITLE0=Rare's Hill
TTITLE1=The Chandler's Wife
TTITLE2=Meant To Be
TTITLE3=Forever
TTITLE4=Refuge
TTITLE5=Passion Flower
TTITLE6=You're Still Here
TTITLE7=Shule Aroon
TTITLE8=She Moved Through The Fair
TTITLE9=Suzanna Martin
TTITLE10=The Scotsman
EXTD=
EXTT0=
EXTT1=
EXTT2=
EXTT3=
EXTT4=
EXTT5=
EXTT6=
EXTT7=
EXTT8=
EXTT9=
EXTT10=
PLAYORDER=
